<?xml version="1.0" encoding="UTF-8" standalone="no"?>
<!-- Created with Inkscape (http://www.inkscape.org/) -->

<svg width="59.134075mm" height="48.608471mm" viewBox="0 0 59.134075 48.608471" version="1.1" id="svg1" xml:space="preserve" xmlns="http://www.w3.org/2000/svg" xmlns:svg="http://www.w3.org/2000/svg"><defs id="defs1" /><g id="layer1" transform="translate(-50.262554,-107.93767)"><rect style="fill:#ffffff;fill-opacity:1;fill-rule:evenodd;stroke:#000000;stroke-width:4;stroke-linecap:round;stroke-dasharray:none;stroke-opacity:1" id="rect10" width="55.134075" height="44.608471" x="52.262554" y="109.93767" rx="3.9626479" ry="3.9626479" /><g id="g11" transform="translate(0,-3.9930004e-4)"><path style="fill:none;fill-opacity:1;stroke:#0185c5;stroke-width:4;stroke-linecap:butt;stroke-linejoin:miter;stroke-dasharray:none;stroke-opacity:1" d="m 59.690371,144.61345 c 0,0 4.3556,-4.33204 7.288122,-4.38015 3.284002,-0.0539 5.07541,4.61722 8.359909,4.63407 3.484208,0.0178 5.448027,-4.75966 8.931521,-4.82452 3.399886,-0.0633 5.537939,4.57464 8.931522,4.38015 2.771491,-0.15883 6.716515,-4.38015 6.716515,-4.38015" id="path1" /><path id="path3" style="baseline-shift:baseline;display:inline;overflow:visible;opacity:1;vector-effect:none;enable-background:accumulate;stop-color:#000000;stop-opacity:1" d="m 63.355295,117.61718 c -0.654727,0 -1.424237,0.25601 -1.890324,0.80874 -0.466087,0.55273 -0.548804,1.16999 -0.548804,1.63091 v 13.24002 h 2.999817 v -5.76761 h 5.27358 v 5.76761 h 2.999817 v -13.24002 c 0,-0.46092 -0.08272,-1.07818 -0.548804,-1.63091 -0.466087,-0.55273 -1.235597,-0.80874 -1.890324,-0.80874 h -2.488737 z m 10.883057,0 v 2.99982 h 3.345532 v 10.2402 c 0,0.46092 0.08272,1.07818 0.548803,1.63091 0.466088,0.55273 1.236115,0.80874 1.890841,0.80874 h 6.57996 v -2.99982 h -6.019271 v -10.2402 c 0,-0.46092 -0.08271,-1.07818 -0.548803,-1.63091 -0.466087,-0.55273 -1.236114,-0.80874 -1.890841,-0.80874 z m 11.854056,0 c -0.460911,0 -1.078175,0.0827 -1.630908,0.54881 -0.552733,0.46608 -0.808736,1.23612 -0.808736,1.89084 v 3.90415 h 2.999817 v -3.34346 h 3.045292 v 12.67933 h 2.999817 v -12.67933 h 3.044775 v 3.34346 h 3.000334 v -3.90415 c 0,-0.65472 -0.256003,-1.42476 -0.808736,-1.89084 -0.552733,-0.46609 -1.169997,-0.54881 -1.630908,-0.54881 z M 63.915984,120.617 h 3.345532 1.928048 v 3.91242 h -5.27358 z" /></g></g></svg>
